<mxfile host="app.diagrams.net" modified="2021-07-24T15:50:35.685Z" agent="5.0 (X11; Linux x86_64) AppleWebKit/537.36 (KHTML, like Gecko) Chrome/92.0.4515.107 Safari/537.36" etag="4zDCdDkP-Mnr4VbQdNPL" version="14.9.2" type="github">
  <diagram id="Dt9NiPFIbqNlPmzgtWHR" name="Page-1">
    <mxGraphModel dx="1165" dy="624" grid="1" gridSize="10" guides="1" tooltips="1" connect="1" arrows="1" fold="1" page="1" pageScale="1" pageWidth="850" pageHeight="1100" math="0" shadow="0">
      <root>
        <mxCell id="0" />
        <mxCell id="1" parent="0" />
        <mxCell id="Ob-glI3T6qj7uerjAWqs-4" value="retrieve" style="edgeStyle=orthogonalEdgeStyle;rounded=0;orthogonalLoop=1;jettySize=auto;html=1;exitX=0.75;exitY=1;exitDx=0;exitDy=0;entryX=0.75;entryY=0;entryDx=0;entryDy=0;" edge="1" parent="1" source="Ob-glI3T6qj7uerjAWqs-1" target="Ob-glI3T6qj7uerjAWqs-10">
          <mxGeometry relative="1" as="geometry" />
        </mxCell>
        <mxCell id="Ob-glI3T6qj7uerjAWqs-1" value="Yap Configuration Gist" style="rounded=1;whiteSpace=wrap;html=1;" vertex="1" parent="1">
          <mxGeometry x="430" y="20" width="120" height="60" as="geometry" />
        </mxCell>
        <mxCell id="Ob-glI3T6qj7uerjAWqs-3" value="publish" style="edgeStyle=orthogonalEdgeStyle;rounded=0;orthogonalLoop=1;jettySize=auto;html=1;exitX=0.25;exitY=0;exitDx=0;exitDy=0;entryX=0.25;entryY=1;entryDx=0;entryDy=0;" edge="1" parent="1" source="Ob-glI3T6qj7uerjAWqs-10" target="Ob-glI3T6qj7uerjAWqs-1">
          <mxGeometry relative="1" as="geometry" />
        </mxCell>
        <mxCell id="Ob-glI3T6qj7uerjAWqs-9" value="auth" style="edgeStyle=orthogonalEdgeStyle;rounded=0;orthogonalLoop=1;jettySize=auto;html=1;exitX=0.5;exitY=0;exitDx=0;exitDy=0;entryX=0.5;entryY=1;entryDx=0;entryDy=0;" edge="1" parent="1" source="Ob-glI3T6qj7uerjAWqs-2" target="Ob-glI3T6qj7uerjAWqs-5">
          <mxGeometry relative="1" as="geometry" />
        </mxCell>
        <mxCell id="Ob-glI3T6qj7uerjAWqs-2" value="GitHub Account" style="rounded=1;whiteSpace=wrap;html=1;" vertex="1" parent="1">
          <mxGeometry x="210" y="170" width="120" height="60" as="geometry" />
        </mxCell>
        <mxCell id="Ob-glI3T6qj7uerjAWqs-5" value="OAuth (Device-Flow)" style="rounded=1;whiteSpace=wrap;html=1;" vertex="1" parent="1">
          <mxGeometry x="210" y="20" width="120" height="60" as="geometry" />
        </mxCell>
        <mxCell id="Ob-glI3T6qj7uerjAWqs-11" value="manage login" style="edgeStyle=orthogonalEdgeStyle;rounded=0;orthogonalLoop=1;jettySize=auto;html=1;exitX=0;exitY=0.5;exitDx=0;exitDy=0;entryX=1;entryY=0.5;entryDx=0;entryDy=0;" edge="1" parent="1" source="Ob-glI3T6qj7uerjAWqs-10" target="Ob-glI3T6qj7uerjAWqs-2">
          <mxGeometry relative="1" as="geometry" />
        </mxCell>
        <mxCell id="Ob-glI3T6qj7uerjAWqs-10" value="GitHub Manager" style="rounded=1;whiteSpace=wrap;html=1;" vertex="1" parent="1">
          <mxGeometry x="430" y="170" width="120" height="60" as="geometry" />
        </mxCell>
        <mxCell id="Ob-glI3T6qj7uerjAWqs-32" style="edgeStyle=orthogonalEdgeStyle;rounded=0;orthogonalLoop=1;jettySize=auto;html=1;exitX=0.75;exitY=0;exitDx=0;exitDy=0;entryX=0;entryY=0.5;entryDx=0;entryDy=0;" edge="1" parent="1" source="Ob-glI3T6qj7uerjAWqs-12" target="Ob-glI3T6qj7uerjAWqs-13">
          <mxGeometry relative="1" as="geometry" />
        </mxCell>
        <mxCell id="Ob-glI3T6qj7uerjAWqs-33" style="edgeStyle=orthogonalEdgeStyle;rounded=0;orthogonalLoop=1;jettySize=auto;html=1;exitX=1;exitY=0.25;exitDx=0;exitDy=0;entryX=0;entryY=0.5;entryDx=0;entryDy=0;" edge="1" parent="1" source="Ob-glI3T6qj7uerjAWqs-12" target="Ob-glI3T6qj7uerjAWqs-14">
          <mxGeometry relative="1" as="geometry" />
        </mxCell>
        <mxCell id="Ob-glI3T6qj7uerjAWqs-34" style="edgeStyle=orthogonalEdgeStyle;rounded=0;orthogonalLoop=1;jettySize=auto;html=1;exitX=1;exitY=0.75;exitDx=0;exitDy=0;entryX=0;entryY=0.5;entryDx=0;entryDy=0;" edge="1" parent="1" source="Ob-glI3T6qj7uerjAWqs-12" target="Ob-glI3T6qj7uerjAWqs-15">
          <mxGeometry relative="1" as="geometry" />
        </mxCell>
        <mxCell id="Ob-glI3T6qj7uerjAWqs-35" style="edgeStyle=orthogonalEdgeStyle;rounded=0;orthogonalLoop=1;jettySize=auto;html=1;exitX=0.75;exitY=1;exitDx=0;exitDy=0;entryX=0;entryY=0.5;entryDx=0;entryDy=0;" edge="1" parent="1" source="Ob-glI3T6qj7uerjAWqs-12" target="Ob-glI3T6qj7uerjAWqs-16">
          <mxGeometry relative="1" as="geometry" />
        </mxCell>
        <mxCell id="Ob-glI3T6qj7uerjAWqs-12" value="Command" style="rounded=1;whiteSpace=wrap;html=1;" vertex="1" parent="1">
          <mxGeometry x="80" y="400" width="120" height="60" as="geometry" />
        </mxCell>
        <mxCell id="Ob-glI3T6qj7uerjAWqs-27" style="edgeStyle=orthogonalEdgeStyle;rounded=0;orthogonalLoop=1;jettySize=auto;html=1;exitX=1;exitY=0.5;exitDx=0;exitDy=0;entryX=0.25;entryY=0;entryDx=0;entryDy=0;" edge="1" parent="1" source="Ob-glI3T6qj7uerjAWqs-13" target="Ob-glI3T6qj7uerjAWqs-17">
          <mxGeometry relative="1" as="geometry" />
        </mxCell>
        <mxCell id="Ob-glI3T6qj7uerjAWqs-13" value="Install" style="rounded=1;whiteSpace=wrap;html=1;" vertex="1" parent="1">
          <mxGeometry x="280" y="295" width="120" height="60" as="geometry" />
        </mxCell>
        <mxCell id="Ob-glI3T6qj7uerjAWqs-28" style="edgeStyle=orthogonalEdgeStyle;rounded=0;orthogonalLoop=1;jettySize=auto;html=1;exitX=1;exitY=0.5;exitDx=0;exitDy=0;entryX=0;entryY=0.25;entryDx=0;entryDy=0;" edge="1" parent="1" source="Ob-glI3T6qj7uerjAWqs-14" target="Ob-glI3T6qj7uerjAWqs-17">
          <mxGeometry relative="1" as="geometry" />
        </mxCell>
        <mxCell id="Ob-glI3T6qj7uerjAWqs-14" value="Uninstall" style="rounded=1;whiteSpace=wrap;html=1;" vertex="1" parent="1">
          <mxGeometry x="280" y="365" width="120" height="60" as="geometry" />
        </mxCell>
        <mxCell id="Ob-glI3T6qj7uerjAWqs-29" style="edgeStyle=orthogonalEdgeStyle;rounded=0;orthogonalLoop=1;jettySize=auto;html=1;exitX=1;exitY=0.5;exitDx=0;exitDy=0;entryX=0;entryY=0.75;entryDx=0;entryDy=0;" edge="1" parent="1" source="Ob-glI3T6qj7uerjAWqs-15" target="Ob-glI3T6qj7uerjAWqs-17">
          <mxGeometry relative="1" as="geometry" />
        </mxCell>
        <mxCell id="Ob-glI3T6qj7uerjAWqs-15" value="Update" style="rounded=1;whiteSpace=wrap;html=1;" vertex="1" parent="1">
          <mxGeometry x="280" y="435" width="120" height="60" as="geometry" />
        </mxCell>
        <mxCell id="Ob-glI3T6qj7uerjAWqs-30" style="edgeStyle=orthogonalEdgeStyle;rounded=0;orthogonalLoop=1;jettySize=auto;html=1;exitX=1;exitY=0.5;exitDx=0;exitDy=0;entryX=0.25;entryY=1;entryDx=0;entryDy=0;" edge="1" parent="1" source="Ob-glI3T6qj7uerjAWqs-16" target="Ob-glI3T6qj7uerjAWqs-17">
          <mxGeometry relative="1" as="geometry" />
        </mxCell>
        <mxCell id="Ob-glI3T6qj7uerjAWqs-16" value="Search" style="rounded=1;whiteSpace=wrap;html=1;" vertex="1" parent="1">
          <mxGeometry x="280" y="505" width="120" height="60" as="geometry" />
        </mxCell>
        <mxCell id="Ob-glI3T6qj7uerjAWqs-22" style="edgeStyle=orthogonalEdgeStyle;rounded=0;orthogonalLoop=1;jettySize=auto;html=1;exitX=1;exitY=0.25;exitDx=0;exitDy=0;entryX=0;entryY=0.5;entryDx=0;entryDy=0;" edge="1" parent="1" source="Ob-glI3T6qj7uerjAWqs-17" target="Ob-glI3T6qj7uerjAWqs-19">
          <mxGeometry relative="1" as="geometry" />
        </mxCell>
        <mxCell id="Ob-glI3T6qj7uerjAWqs-23" style="edgeStyle=orthogonalEdgeStyle;rounded=0;orthogonalLoop=1;jettySize=auto;html=1;exitX=1;exitY=0.75;exitDx=0;exitDy=0;entryX=0;entryY=0.5;entryDx=0;entryDy=0;" edge="1" parent="1" source="Ob-glI3T6qj7uerjAWqs-17" target="Ob-glI3T6qj7uerjAWqs-20">
          <mxGeometry relative="1" as="geometry" />
        </mxCell>
        <mxCell id="Ob-glI3T6qj7uerjAWqs-24" style="edgeStyle=orthogonalEdgeStyle;rounded=0;orthogonalLoop=1;jettySize=auto;html=1;exitX=0.75;exitY=1;exitDx=0;exitDy=0;entryX=0;entryY=0.5;entryDx=0;entryDy=0;" edge="1" parent="1" source="Ob-glI3T6qj7uerjAWqs-17" target="Ob-glI3T6qj7uerjAWqs-21">
          <mxGeometry relative="1" as="geometry" />
        </mxCell>
        <mxCell id="Ob-glI3T6qj7uerjAWqs-25" style="edgeStyle=orthogonalEdgeStyle;rounded=0;orthogonalLoop=1;jettySize=auto;html=1;exitX=0.75;exitY=0;exitDx=0;exitDy=0;entryX=0;entryY=0.5;entryDx=0;entryDy=0;" edge="1" parent="1" source="Ob-glI3T6qj7uerjAWqs-17" target="Ob-glI3T6qj7uerjAWqs-18">
          <mxGeometry relative="1" as="geometry" />
        </mxCell>
        <mxCell id="Ob-glI3T6qj7uerjAWqs-17" value="Manager" style="rounded=1;whiteSpace=wrap;html=1;" vertex="1" parent="1">
          <mxGeometry x="470" y="400" width="120" height="60" as="geometry" />
        </mxCell>
        <mxCell id="Ob-glI3T6qj7uerjAWqs-18" value="APT" style="rounded=1;whiteSpace=wrap;html=1;" vertex="1" parent="1">
          <mxGeometry x="640" y="285" width="120" height="60" as="geometry" />
        </mxCell>
        <mxCell id="Ob-glI3T6qj7uerjAWqs-19" value="Pacman" style="rounded=1;whiteSpace=wrap;html=1;" vertex="1" parent="1">
          <mxGeometry x="640" y="365" width="120" height="60" as="geometry" />
        </mxCell>
        <mxCell id="Ob-glI3T6qj7uerjAWqs-20" value="Snap" style="rounded=1;whiteSpace=wrap;html=1;" vertex="1" parent="1">
          <mxGeometry x="640" y="445" width="120" height="60" as="geometry" />
        </mxCell>
        <mxCell id="Ob-glI3T6qj7uerjAWqs-21" value="Flatpak" style="rounded=1;whiteSpace=wrap;html=1;" vertex="1" parent="1">
          <mxGeometry x="640" y="515" width="120" height="60" as="geometry" />
        </mxCell>
      </root>
    </mxGraphModel>
  </diagram>
</mxfile>
